<svg width="19" height="18" viewBox="0 0 19 18" fill="none" xmlns="http://www.w3.org/2000/svg">
<path fill-rule="evenodd" clip-rule="evenodd" d="M16.75 0H1.75C0.921573 0 0.25 0.671573 0.25 1.5V16.5C0.25 17.3284 0.921573 18 1.75 18H16.75C17.5784 18 18.25 17.3284 18.25 16.5V1.5C18.25 0.671573 17.5784 0 16.75 0ZM16.75 16.5H1.75V1.5H16.75V16.5ZM13.75 9C13.75 9.41421 13.4142 9.75 13 9.75H10V12.75C10 13.1642 9.66421 13.5 9.25 13.5C8.83579 13.5 8.5 13.1642 8.5 12.75V9.75H5.5C5.08579 9.75 4.75 9.41421 4.75 9C4.75 8.58579 5.08579 8.25 5.5 8.25H8.5V5.25C8.5 4.83579 8.83579 4.5 9.25 4.5C9.66421 4.5 10 4.83579 10 5.25V8.25H13C13.4142 8.25 13.75 8.58579 13.75 9Z" fill="#876363"/>
</svg>
