<svg width="20" height="21" viewBox="0 0 20 21" fill="none" xmlns="http://www.w3.org/2000/svg">
<path fill-rule="evenodd" clip-rule="evenodd" d="M18 2.75H10.5V1.25C10.5 0.835786 10.1642 0.5 9.75 0.5C9.33579 0.5 9 0.835786 9 1.25V2.75H1.5C0.671573 2.75 0 3.42157 0 4.25V15.5C0 16.3284 0.671573 17 1.5 17H5.19L3.16406 19.5312C2.90518 19.8549 2.95765 20.3271 3.28125 20.5859C3.60485 20.8448 4.07705 20.7924 4.33594 20.4688L7.11 17H12.39L15.1641 20.4688C15.4229 20.7924 15.8951 20.8448 16.2188 20.5859C16.5424 20.3271 16.5948 19.8549 16.3359 19.5312L14.31 17H18C18.8284 17 19.5 16.3284 19.5 15.5V4.25C19.5 3.42157 18.8284 2.75 18 2.75ZM18 15.5H1.5V4.25H18V15.5ZM7.5 10.25V12.5C7.5 12.9142 7.16421 13.25 6.75 13.25C6.33579 13.25 6 12.9142 6 12.5V10.25C6 9.83579 6.33579 9.5 6.75 9.5C7.16421 9.5 7.5 9.83579 7.5 10.25ZM10.5 8.75V12.5C10.5 12.9142 10.1642 13.25 9.75 13.25C9.33579 13.25 9 12.9142 9 12.5V8.75C9 8.33579 9.33579 8 9.75 8C10.1642 8 10.5 8.33579 10.5 8.75ZM13.5 7.25V12.5C13.5 12.9142 13.1642 13.25 12.75 13.25C12.3358 13.25 12 12.9142 12 12.5V7.25C12 6.83579 12.3358 6.5 12.75 6.5C13.1642 6.5 13.5 6.83579 13.5 7.25Z" fill="#876363"/>
</svg>
